<svg width="32" height="32" fill="none" xmlns="http://www.w3.org/2000/svg"><path d="M23.67 18.56a7.03 7.03 0 1 0 0-14.06 7.03 7.03 0 0 0 0 14.06Z" fill="url(#a)"/><path fill-rule="evenodd" clip-rule="evenodd" d="M22.96 13.78c-.4 0-.77.04-1.14.12a7.37 7.37 0 0 0-14.34 3.33h-.16a4.32 4.32 0 0 0-.24 8.63v.02h15.47v-.03l.4.03a6.05 6.05 0 0 0 0-12.1Z" fill="url(#b)"/><defs><linearGradient id="a" x1="23.67" y1="4.5" x2="23.67" y2="18.56" gradientUnits="userSpaceOnUse"><stop stop-color="#FFE169"/><stop offset="1" stop-color="#FFC369"/></linearGradient><linearGradient id="b" x1="16.33" y1="25.88" x2="16.33" y2="8.6" gradientUnits="userSpaceOnUse"><stop stop-color="#B6D3FF"/><stop offset="1" stop-color="#C9E5FF"/></linearGradient></defs></svg>