<svg xmlns:xlink="http://www.w3.org/1999/xlink" viewBox="0 0 40 40" fill="currentColor" xmlns="http://www.w3.org/2000/svg" width="52"  height="52" ><path fill-rule="evenodd" clip-rule="evenodd" d="M7.5 12.167c0-.645.56-1.167 1.25-1.167h22.5c.69 0 1.25.522 1.25 1.167 0 .644-.56 1.166-1.25 1.166H8.75c-.69 0-1.25-.522-1.25-1.166ZM7.5 20c0-.644.56-1.167 1.25-1.167h22.5c.69 0 1.25.523 1.25 1.167s-.56 1.167-1.25 1.167H8.75c-.69 0-1.25-.523-1.25-1.167Zm1.25 6.667c-.69 0-1.25.522-1.25 1.166 0 .645.56 1.167 1.25 1.167h22.5c.69 0 1.25-.522 1.25-1.167 0-.644-.56-1.166-1.25-1.166H8.75Z" fill-opacity="0.45" fill="#000000"></path></svg>